<mxfile host="app.diagrams.net" modified="2023-10-22T16:48:25.223Z" agent="Mozilla/5.0 (Windows NT 10.0; Win64; x64) AppleWebKit/537.36 (KHTML, like Gecko) Chrome/118.0.0.0 Safari/537.36" etag="cb3rm43uoZnCAXeDfYzd" version="22.0.6" type="device">
  <diagram name="Page-1" id="oqvNOPlqgG4kUIwsN4LJ">
    <mxGraphModel dx="1434" dy="750" grid="1" gridSize="10" guides="1" tooltips="1" connect="1" arrows="1" fold="1" page="1" pageScale="1" pageWidth="827" pageHeight="1169" math="0" shadow="0">
      <root>
        <mxCell id="0" />
        <mxCell id="1" parent="0" />
        <mxCell id="Ls1P-pX3JCseVCw3v4cF-1" value="«interface»&lt;br&gt;&lt;b&gt;EventSubscriber_1&lt;br&gt;&lt;/b&gt;" style="html=1;whiteSpace=wrap;" vertex="1" parent="1">
          <mxGeometry x="490" y="290" width="170" height="70" as="geometry" />
        </mxCell>
        <mxCell id="Ls1P-pX3JCseVCw3v4cF-2" value="EventSubscriber_1_Impl" style="html=1;whiteSpace=wrap;" vertex="1" parent="1">
          <mxGeometry x="510" y="470" width="180" height="80" as="geometry" />
        </mxCell>
        <mxCell id="Ls1P-pX3JCseVCw3v4cF-3" value="" style="endArrow=block;dashed=1;endFill=0;endSize=12;html=1;rounded=0;entryX=0.5;entryY=1;entryDx=0;entryDy=0;exitX=0.5;exitY=0;exitDx=0;exitDy=0;" edge="1" parent="1" source="Ls1P-pX3JCseVCw3v4cF-2" target="Ls1P-pX3JCseVCw3v4cF-1">
          <mxGeometry width="160" relative="1" as="geometry">
            <mxPoint x="110" y="480" as="sourcePoint" />
            <mxPoint x="270" y="480" as="targetPoint" />
          </mxGeometry>
        </mxCell>
        <mxCell id="Ls1P-pX3JCseVCw3v4cF-4" value="Event_1" style="html=1;whiteSpace=wrap;" vertex="1" parent="1">
          <mxGeometry x="430" y="120" width="140" height="70" as="geometry" />
        </mxCell>
        <mxCell id="Ls1P-pX3JCseVCw3v4cF-5" value="«interface»&lt;br&gt;&lt;b&gt;EventSubscriber_2&lt;br&gt;&lt;/b&gt;" style="html=1;whiteSpace=wrap;" vertex="1" parent="1">
          <mxGeometry x="60" y="290" width="170" height="70" as="geometry" />
        </mxCell>
        <mxCell id="Ls1P-pX3JCseVCw3v4cF-6" value="EventSubscriber_2_Impl" style="html=1;whiteSpace=wrap;" vertex="1" parent="1">
          <mxGeometry x="40" y="490" width="180" height="80" as="geometry" />
        </mxCell>
        <mxCell id="Ls1P-pX3JCseVCw3v4cF-7" value="" style="endArrow=block;dashed=1;endFill=0;endSize=12;html=1;rounded=0;entryX=0.5;entryY=1;entryDx=0;entryDy=0;exitX=0.5;exitY=0;exitDx=0;exitDy=0;" edge="1" parent="1" source="Ls1P-pX3JCseVCw3v4cF-6" target="Ls1P-pX3JCseVCw3v4cF-5">
          <mxGeometry width="160" relative="1" as="geometry">
            <mxPoint x="-90" y="480" as="sourcePoint" />
            <mxPoint x="70" y="480" as="targetPoint" />
          </mxGeometry>
        </mxCell>
        <mxCell id="Ls1P-pX3JCseVCw3v4cF-8" value="Use" style="endArrow=open;endSize=12;dashed=1;html=1;rounded=0;exitX=0.5;exitY=0;exitDx=0;exitDy=0;entryX=0.5;entryY=1;entryDx=0;entryDy=0;" edge="1" parent="1" source="Ls1P-pX3JCseVCw3v4cF-5" target="Ls1P-pX3JCseVCw3v4cF-11">
          <mxGeometry width="160" relative="1" as="geometry">
            <mxPoint x="130" y="240" as="sourcePoint" />
            <mxPoint x="180" y="170" as="targetPoint" />
          </mxGeometry>
        </mxCell>
        <mxCell id="Ls1P-pX3JCseVCw3v4cF-9" value="Use" style="endArrow=open;endSize=12;dashed=1;html=1;rounded=0;entryX=0.75;entryY=1;entryDx=0;entryDy=0;exitX=0.5;exitY=0;exitDx=0;exitDy=0;" edge="1" parent="1" source="Ls1P-pX3JCseVCw3v4cF-1" target="Ls1P-pX3JCseVCw3v4cF-4">
          <mxGeometry width="160" relative="1" as="geometry">
            <mxPoint x="195" y="290" as="sourcePoint" />
            <mxPoint x="294" y="191" as="targetPoint" />
          </mxGeometry>
        </mxCell>
        <mxCell id="Ls1P-pX3JCseVCw3v4cF-10" value="EventLogger" style="html=1;whiteSpace=wrap;" vertex="1" parent="1">
          <mxGeometry x="290" y="230" width="110" height="50" as="geometry" />
        </mxCell>
        <mxCell id="Ls1P-pX3JCseVCw3v4cF-11" value="Event_2" style="html=1;whiteSpace=wrap;" vertex="1" parent="1">
          <mxGeometry x="110" y="120" width="140" height="70" as="geometry" />
        </mxCell>
        <mxCell id="Ls1P-pX3JCseVCw3v4cF-16" value="1" style="endArrow=open;html=1;endSize=12;startArrow=diamondThin;startSize=14;startFill=1;edgeStyle=orthogonalEdgeStyle;align=left;verticalAlign=bottom;rounded=0;entryX=0.5;entryY=1;entryDx=0;entryDy=0;exitX=1;exitY=0.75;exitDx=0;exitDy=0;" edge="1" parent="1" source="Ls1P-pX3JCseVCw3v4cF-6" target="Ls1P-pX3JCseVCw3v4cF-10">
          <mxGeometry x="-1" y="3" relative="1" as="geometry">
            <mxPoint x="130" y="670" as="sourcePoint" />
            <mxPoint x="290" y="670" as="targetPoint" />
          </mxGeometry>
        </mxCell>
        <mxCell id="Ls1P-pX3JCseVCw3v4cF-17" value="&amp;lt;&amp;lt;creates&amp;gt;&amp;gt;" style="endArrow=open;endSize=12;dashed=1;html=1;rounded=0;entryX=0.1;entryY=1;entryDx=0;entryDy=0;exitX=1;exitY=0.25;exitDx=0;exitDy=0;entryPerimeter=0;" edge="1" parent="1" source="Ls1P-pX3JCseVCw3v4cF-6" target="Ls1P-pX3JCseVCw3v4cF-4">
          <mxGeometry x="0.0531" y="-6" width="160" relative="1" as="geometry">
            <mxPoint x="310" y="620" as="sourcePoint" />
            <mxPoint x="470" y="620" as="targetPoint" />
            <Array as="points">
              <mxPoint x="440" y="510" />
            </Array>
            <mxPoint as="offset" />
          </mxGeometry>
        </mxCell>
        <mxCell id="Ls1P-pX3JCseVCw3v4cF-18" value="Use" style="endArrow=open;endSize=12;dashed=1;html=1;rounded=0;entryX=-0.006;entryY=0.614;entryDx=0;entryDy=0;exitX=1;exitY=0.5;exitDx=0;exitDy=0;entryPerimeter=0;" edge="1" parent="1" source="Ls1P-pX3JCseVCw3v4cF-10" target="Ls1P-pX3JCseVCw3v4cF-1">
          <mxGeometry width="160" relative="1" as="geometry">
            <mxPoint x="585" y="300" as="sourcePoint" />
            <mxPoint x="545" y="200" as="targetPoint" />
          </mxGeometry>
        </mxCell>
        <mxCell id="Ls1P-pX3JCseVCw3v4cF-19" value="Use" style="endArrow=open;endSize=12;dashed=1;html=1;rounded=0;entryX=1;entryY=0.5;entryDx=0;entryDy=0;exitX=0;exitY=0.5;exitDx=0;exitDy=0;" edge="1" parent="1" source="Ls1P-pX3JCseVCw3v4cF-10" target="Ls1P-pX3JCseVCw3v4cF-5">
          <mxGeometry width="160" relative="1" as="geometry">
            <mxPoint x="350" y="330" as="sourcePoint" />
            <mxPoint x="439" y="408" as="targetPoint" />
          </mxGeometry>
        </mxCell>
      </root>
    </mxGraphModel>
  </diagram>
</mxfile>
